<svg id="Layer_1" data-name="Layer 1" xmlns="http://www.w3.org/2000/svg" xmlns:xlink="http://www.w3.org/1999/xlink" viewBox="0 0 424.66 727.24"><defs><style>.cls-1{fill:url(#linear-gradient);}.cls-2{fill:#8e65ab;}.cls-3{fill:#e0d5e9;}.cls-4{fill:#fff;opacity:0.81;}</style><linearGradient id="linear-gradient" x1="-94664.6" y1="1000" x2="12294.32" y2="1000" gradientUnits="userSpaceOnUse"><stop offset="0" stop-color="#bbbfda"/><stop offset="1" stop-color="#662d8f"/></linearGradient></defs><title>SVG2</title><path class="cls-1" d="M1169,1006.63c.26,1.58.52,3.15.78,4.7.1.59.18,1.18.28,1.77-.1-.59-.18-1.18-.29-1.78-.26-1.54-.52-3.11-.78-4.69C1120.32,896,1048.8,761.31,1055.74,636.38c-1,.26-2.08.56-3.11.85-15.36,4.41-178.19,187.35-240.63,377.86q1.92-7.83,4.11-15.35c-1.68,5.61-3.91,13.29-6.38,22.42-12.88,41-21,82.24-21.83,122.05-.64,15,0,28.86,2.53,40.51,3.13,14.38,5.31,28.44,10.7,40.78q2.64,7.07,5.76,13.88a212,212,0,0,0,48.3,67.07q3.82,3.63,7.88,7a211.29,211.29,0,0,0,137,50.16q3.39,0,6.78-.1a212.17,212.17,0,0,0,44.61-6.18c6.18-1.51,12.27-3.32,18.22-5.41a212,212,0,0,0,142.64-200.57C1212.33,1112.08,1193.58,1062.41,1169,1006.63Z" transform="translate(-787.67 -636.38)"/><path class="cls-2" d="M1196.4,1232.21a213,213,0,0,1-126.71,119.72c-6,2.09-12,3.9-18.22,5.41-23.66-10.89-55.52-24-87.51-38-7.88-3.43-56.55-4.54-100.89-5.92q-4.05-3.39-7.88-7a212,212,0,0,1-48.3-67.07c17.4,8.89,40.38,10.91,43.77,11.33,87.58,11,102.7-68.32,66.6-97.26-138-110.51-10-197.66,188.23-269.39,2-.73,4-1.44,6-2.16-67.73,44.91-63.41,153.65-23.63,197.21,29,31.73,51.52,54.28,68.47,74.08C1178.7,1179.38,1191.39,1200.76,1196.4,1232.21Z" transform="translate(-787.67 -636.38)"/><path class="cls-3" d="M1196.4,1232.21a213,213,0,0,1-126.71,119.72c-6,2.09-12,3.9-18.22,5.41a212.17,212.17,0,0,1-44.61,6.18q-3.39.11-6.78.1a211.29,211.29,0,0,1-137-50.16q-4.05-3.39-7.88-7c16.07,4,56.09,8.37,97.29-12.27,69-34.54,60.44-108.26,27.31-140.73-90.56-88.74-70.37-197.22,125.7-269.39,2-.73,4-1.44,6-2.16-67.73,44.91-63.41,153.65-23.63,197.21,29,31.73,51.52,54.28,68.47,74.08C1178.7,1179.38,1191.39,1200.76,1196.4,1232.21Z" transform="translate(-787.67 -636.38)"/><path class="cls-4" d="M1196.39,1232.22a212.51,212.51,0,0,1-53.25,75.92c8-36.2-4.14-72.29-23-96.91a105.9,105.9,0,0,0-7.45-8.8c-85.77-91-174.76-243.24-1.25-320.52-67.73,44.9-63.42,153.64-23.63,197.2,29,31.74,51.52,54.29,68.46,74.08C1178.7,1179.38,1191.38,1200.76,1196.39,1232.22Z" transform="translate(-787.67 -636.38)"/></svg>