<svg id="Layer_1" data-name="Layer 1" xmlns="http://www.w3.org/2000/svg" xmlns:xlink="http://www.w3.org/1999/xlink" viewBox="0 0 631.62 526.48"><defs><style>.cls-1{fill:#662d8f;}.cls-2{fill:url(#linear-gradient);}.cls-3{fill:#8e65ab;}.cls-4{fill:#e0d5e9;}.cls-5{fill:#fff;opacity:0.81;}</style><linearGradient id="linear-gradient" x1="-53999.48" y1="945.76" x2="7478.22" y2="945.76" gradientUnits="userSpaceOnUse"><stop offset="0" stop-color="#bbbfda"/><stop offset="1" stop-color="#662d8f"/></linearGradient></defs><title>SVG1</title><path class="cls-1" d="M739,1236.85H702.19q.9,7.5,4.25,10.51t9.28,3a19.3,19.3,0,0,0,6.93-1.28,35.74,35.74,0,0,0,7.27-4l7.27,9.84a36.3,36.3,0,0,1-23.14,8.27q-14.43,0-22.14-8.5t-7.72-22.81a39.32,39.32,0,0,1,3.24-16.27,25.6,25.6,0,0,1,24.49-15.59q12.86,0,20.13,8t7.26,22.36A53,53,0,0,1,739,1236.85Zm-17-11.4q-.22-13.64-9.61-13.64a8.37,8.37,0,0,0-7.1,3.35q-2.52,3.36-3.08,11.07H722Z" transform="translate(-684.19 -736.76)"/><path class="cls-1" d="M753,1258.82q-4.31-4.41-4.3-12.57v-67.87l17.66-1.9v69.09q0,3.69,3,3.69a7.58,7.58,0,0,0,2.91-.55l3.46,12.52a27.54,27.54,0,0,1-10.73,2Q757.32,1263.24,753,1258.82Z" transform="translate(-684.19 -736.76)"/><path class="cls-1" d="M798.74,1173.51a10.27,10.27,0,0,1,0,14.43,10.43,10.43,0,0,1-7.55,2.85,10.26,10.26,0,0,1-7.49-2.85,10.43,10.43,0,0,1,0-14.43,10.26,10.26,0,0,1,7.49-2.85A10.43,10.43,0,0,1,798.74,1173.51Zm1.4,28.46v59.37H782.47V1202Z" transform="translate(-684.19 -736.76)"/><path class="cls-1" d="M846.32,1229.59l19.12,31.75h-20l-10.28-22.25-10.07,22.25H805.84L825,1230.15,807.74,1202h19.79l8.28,19,7.94-19h18.78Z" transform="translate(-684.19 -736.76)"/><path class="cls-1" d="M887.52,1173.51a10.27,10.27,0,0,1,0,14.43,10.45,10.45,0,0,1-7.55,2.85,10.24,10.24,0,0,1-7.49-2.85,10.4,10.4,0,0,1,0-14.43,10.24,10.24,0,0,1,7.49-2.85A10.45,10.45,0,0,1,887.52,1173.51Zm1.4,28.46v59.37H871.25V1202Z" transform="translate(-684.19 -736.76)"/><path class="cls-1" d="M940.91,1201.07l-2.8,17.11a24.94,24.94,0,0,0-5.36-.78c-3.51,0-6.17,1.21-8,3.63s-3.26,6.06-4.3,10.9v29.41H902.78V1202h15.43l1.46,11.51a21.13,21.13,0,0,1,6.09-9.67,13.72,13.72,0,0,1,9.22-3.52A21.23,21.23,0,0,1,940.91,1201.07Z" transform="translate(-684.19 -736.76)"/><path class="cls-1" d="M1007,1202a31.7,31.7,0,0,1,9.84,5.36l-6.49,10a27.16,27.16,0,0,0-14.64-4.59,9.87,9.87,0,0,0-5.32,1.18,3.69,3.69,0,0,0-1.84,3.29,4.27,4.27,0,0,0,.84,2.74,8.92,8.92,0,0,0,3.41,2.18,72.15,72.15,0,0,0,7.94,2.69q9.27,2.68,13.81,7t4.52,11.9a16.43,16.43,0,0,1-3.46,10.46,21.76,21.76,0,0,1-9.51,6.76,36.58,36.58,0,0,1-13.41,2.35,40.12,40.12,0,0,1-13.92-2.35,31.85,31.85,0,0,1-10.91-6.48l8.61-9.62q7.5,5.82,15.77,5.82a11.75,11.75,0,0,0,6.32-1.46,4.62,4.62,0,0,0,2.29-4.13,5.58,5.58,0,0,0-.9-3.36,8,8,0,0,0-3.46-2.29,82,82,0,0,0-8.16-2.63q-8.84-2.57-13.2-7.15a16,16,0,0,1-4.36-11.41,15.33,15.33,0,0,1,3-9.22,20.09,20.09,0,0,1,8.5-6.49,31.94,31.94,0,0,1,12.8-2.4A36.89,36.89,0,0,1,1007,1202Z" transform="translate(-684.19 -736.76)"/><path class="cls-1" d="M1065.35,1258.55a25.61,25.61,0,0,1-7.54,3.46,31.08,31.08,0,0,1-8.56,1.23q-19.45-.1-19.45-21.47v-27.5h-8.39V1202h8.39v-12.86l17.66-2V1202h13.64l-1.9,12.3h-11.74v27.28c0,2.76.45,4.73,1.35,5.93a4.94,4.94,0,0,0,4.24,1.78,13,13,0,0,0,6.38-1.9Z" transform="translate(-684.19 -736.76)"/><path class="cls-1" d="M1109.41,1201.07l-2.8,17.11a25,25,0,0,0-5.37-.78c-3.5,0-6.17,1.21-8,3.63s-3.26,6.06-4.31,10.9v29.41h-17.66V1202h15.43l1.45,11.51a21.06,21.06,0,0,1,6.1-9.67,13.72,13.72,0,0,1,9.22-3.52A21.23,21.23,0,0,1,1109.41,1201.07Z" transform="translate(-684.19 -736.76)"/><path class="cls-1" d="M1164.19,1236.85h-36.78q.88,7.5,4.25,10.51t9.28,3a19.38,19.38,0,0,0,6.93-1.28,36,36,0,0,0,7.27-4l7.26,9.84a36.28,36.28,0,0,1-23.14,8.27q-14.43,0-22.14-8.5t-7.72-22.81a39.16,39.16,0,0,1,3.25-16.27,25.58,25.58,0,0,1,24.48-15.59q12.87,0,20.13,8t7.27,22.36A50.86,50.86,0,0,1,1164.19,1236.85Zm-17-11.4q-.23-13.64-9.62-13.64a8.37,8.37,0,0,0-7.1,3.35q-2.52,3.36-3.07,11.07h19.79Z" transform="translate(-684.19 -736.76)"/><path class="cls-1" d="M1221.5,1249a5.68,5.68,0,0,0,3.07,2.35l-3.69,11.52a21.69,21.69,0,0,1-8.94-2.41,12.81,12.81,0,0,1-5.37-6.2q-5.82,8.94-17.89,8.94-8.84,0-14.09-5.14t-5.25-13.42q0-9.73,7.15-14.87t20.69-5.14h6v-2.58q0-5.25-2.23-7.21t-7.83-2a36.88,36.88,0,0,0-7,.83,72.52,72.52,0,0,0-8.5,2.3l-4-11.63a67.35,67.35,0,0,1,11.46-3.24,58.22,58.22,0,0,1,10.91-1.12q12.73,0,18.67,5.25t5.93,15.77v23A9.7,9.7,0,0,0,1221.5,1249Zm-18.29-4.14v-10.51h-4.36q-6,0-9,2.13c-2,1.42-3,3.61-3,6.59a7.75,7.75,0,0,0,1.84,5.54,6.68,6.68,0,0,0,5.09,2Q1199.86,1250.61,1203.21,1244.9Z" transform="translate(-684.19 -736.76)"/><path class="cls-1" d="M1311.56,1204.82q4.25,4.76,4.25,13.14v43.38h-17.67V1221q0-7.95-5-7.94a7.15,7.15,0,0,0-4.92,1.9,20.24,20.24,0,0,0-4.14,5.81v40.59h-17.66V1221q0-7.95-5-7.94a7.14,7.14,0,0,0-4.87,2,20.92,20.92,0,0,0-4.19,5.76v40.59h-17.67V1202h15.43l1.23,6.93a23.56,23.56,0,0,1,7.66-6.65,20.35,20.35,0,0,1,9.56-2.18,15.11,15.11,0,0,1,8.67,2.46,14.1,14.1,0,0,1,5.31,6.93,24.13,24.13,0,0,1,7.88-7.1,20.72,20.72,0,0,1,9.9-2.29A14.4,14.4,0,0,1,1311.56,1204.82Z" transform="translate(-684.19 -736.76)"/><path class="cls-2" d="M1083.64,949.57q.22,1.36.45,2.7c.06.34.11.68.16,1,0-.34-.1-.68-.16-1q-.22-1.34-.45-2.7c-28-63.61-69.1-141-65.11-212.81-.6.15-1.2.32-1.79.49-8.83,2.53-102.42,107.68-138.31,217.18q1.11-4.5,2.36-8.82c-1,3.22-2.24,7.64-3.66,12.89-7.41,23.56-12.06,47.27-12.55,70.15-.37,8.59,0,16.59,1.45,23.28,1.8,8.27,3.05,16.35,6.15,23.44q1.52,4.07,3.31,8a122,122,0,0,0,27.76,38.55q2.21,2.08,4.53,4a121.45,121.45,0,0,0,78.75,28.83q2,0,3.9-.06a121.72,121.72,0,0,0,25.64-3.55c3.55-.87,7-1.91,10.47-3.11a121.88,121.88,0,0,0,82-115.28C1108.53,1010.18,1097.75,981.63,1083.64,949.57Z" transform="translate(-684.19 -736.76)"/><path class="cls-3" d="M1099.37,1079.23a122.44,122.44,0,0,1-72.83,68.81c-3.42,1.2-6.92,2.24-10.47,3.11-13.6-6.26-31.91-13.79-50.3-21.82-4.53-2-32.5-2.61-58-3.4q-2.32-2-4.53-4a122,122,0,0,1-27.76-38.55c10,5.11,23.21,6.27,25.16,6.51,50.34,6.32,59-39.27,38.28-55.9-79.3-63.52-5.75-113.61,108.19-154.84,1.13-.42,2.27-.83,3.42-1.24-38.93,25.81-36.45,88.31-13.58,113.35,16.66,18.24,29.61,31.2,39.35,42.58C1089.2,1048.86,1096.49,1061.15,1099.37,1079.23Z" transform="translate(-684.19 -736.76)"/><path class="cls-4" d="M1099.37,1079.23a122.44,122.44,0,0,1-72.83,68.81c-3.42,1.2-6.92,2.24-10.47,3.11a121.72,121.72,0,0,1-25.64,3.55q-1.95.06-3.9.06a121.45,121.45,0,0,1-78.75-28.83q-2.32-2-4.53-4c9.24,2.31,32.24,4.81,55.92-7.05,39.65-19.86,34.74-62.23,15.7-80.89-52-51-40.45-113.36,72.25-154.84,1.13-.42,2.27-.83,3.42-1.24-38.93,25.81-36.45,88.31-13.58,113.35,16.66,18.24,29.61,31.2,39.35,42.58C1089.2,1048.86,1096.49,1061.15,1099.37,1079.23Z" transform="translate(-684.19 -736.76)"/><path class="cls-5" d="M1099.37,1079.23a122.17,122.17,0,0,1-30.61,43.64c4.62-20.81-2.38-41.55-13.22-55.7a61,61,0,0,0-4.28-5.06c-49.3-52.29-100.45-139.81-.72-184.23-38.93,25.81-36.45,88.31-13.58,113.35,16.66,18.24,29.61,31.2,39.35,42.58C1089.2,1048.86,1096.49,1061.15,1099.37,1079.23Z" transform="translate(-684.19 -736.76)"/></svg>