<?xml version="1.0" standalone="no"?>
<!DOCTYPE svg PUBLIC "-//W3C//DTD SVG 20010904//EN"
 "http://www.w3.org/TR/2001/REC-SVG-20010904/DTD/svg10.dtd">
<svg version="1.0" xmlns="http://www.w3.org/2000/svg"
 width="3031.000000pt" height="3031.000000pt" viewBox="0 0 3031.000000 3031.000000"
 preserveAspectRatio="xMidYMid meet">
<metadata>
Created by potrace 1.11, written by Peter Selinger 2001-2013
</metadata>
<g transform="translate(0.000000,3031.000000) scale(0.100000,-0.100000)"
fill="#000000" stroke="none">
<path d="M17405 30286 c-97 -31 -111 -37 -191 -94 -151 -107 -453 -393 -794
-752 -181 -190 -166 -174 -285 -305 -55 -61 -102 -112 -105 -115 -3 -3 -41
-45 -85 -95 -44 -49 -82 -92 -85 -95 -3 -3 -34 -39 -70 -80 -35 -41 -79 -91
-96 -110 -29 -31 -83 -94 -223 -259 -25 -30 -60 -71 -77 -90 -17 -20 -42 -49
-56 -66 -42 -48 -240 -287 -278 -334 -19 -24 -40 -48 -45 -55 -17 -17 -107
-128 -140 -170 -16 -21 -35 -44 -40 -50 -13 -13 -401 -499 -430 -537 -21 -28
-268 -344 -288 -369 -65 -80 -538 -708 -756 -1005 -44 -60 -89 -121 -98 -134
-28 -37 -317 -438 -330 -458 -7 -10 -59 -83 -116 -163 -56 -80 -123 -174 -147
-210 -25 -36 -47 -67 -50 -70 -3 -3 -23 -32 -46 -65 -22 -33 -66 -97 -97 -142
-147 -212 -216 -314 -456 -673 -277 -416 -406 -613 -569 -870 -57 -91 -119
-187 -137 -215 -30 -47 -59 -94 -146 -232 -292 -465 -832 -1373 -1077 -1813
-14 -25 -34 -61 -45 -80 -11 -19 -30 -53 -41 -75 -12 -22 -29 -51 -38 -65 -8
-14 -35 -61 -58 -105 -23 -44 -48 -89 -55 -100 -7 -11 -31 -55 -54 -97 -71
-135 -123 -231 -166 -308 -22 -41 -50 -93 -60 -115 -11 -22 -22 -42 -25 -45
-3 -3 -32 -57 -64 -120 -32 -63 -88 -171 -124 -240 -185 -357 -474 -943 -632
-1280 -37 -80 -91 -194 -119 -254 -28 -59 -51 -110 -51 -111 0 -2 -18 -43 -41
-92 -106 -228 -179 -396 -179 -410 0 -7 -4 -13 -10 -13 -5 0 -10 -5 -10 -10 0
-10 -182 -446 -200 -482 -23 -42 -393 -971 -404 -1013 -2 -5 -8 -23 -15 -40
-6 -16 -19 -50 -27 -75 -9 -25 -20 -54 -25 -65 -20 -47 -235 -659 -269 -768
-24 -75 -19 -29 6 64 14 52 27 105 30 119 l4 25 -9 -25 c-27 -73 -71 -245 -67
-257 3 -8 2 -12 -2 -9 -4 2 -33 -86 -64 -197 -31 -111 -70 -247 -87 -302 -52
-172 -152 -509 -156 -525 -3 -12 -62 -227 -80 -290 -60 -213 -223 -891 -259
-1070 -2 -14 -18 -90 -35 -170 -17 -80 -32 -156 -35 -170 -3 -14 -12 -63 -21
-109 -9 -46 -18 -96 -20 -110 -2 -14 -15 -89 -29 -166 -13 -77 -27 -156 -30
-175 -3 -19 -16 -105 -30 -190 -14 -85 -27 -180 -31 -210 -3 -30 -8 -62 -10
-70 -2 -8 -6 -42 -10 -75 -3 -33 -8 -67 -10 -75 -2 -8 -6 -42 -10 -75 -3 -33
-7 -71 -10 -85 -2 -14 -7 -56 -10 -95 -6 -72 -12 -130 -20 -200 -7 -59 -20
-208 -30 -345 -21 -307 -23 -349 -40 -825 -12 -325 -2 -834 20 -1030 2 -16 6
-61 10 -100 4 -38 9 -81 11 -95 2 -14 7 -50 10 -79 3 -30 7 -57 9 -60 2 -4 6
-31 10 -61 3 -30 10 -71 15 -90 5 -19 12 -51 15 -70 3 -19 8 -42 10 -50 2 -8
6 -26 9 -40 2 -14 23 -115 46 -225 36 -171 54 -258 74 -360 2 -11 10 -42 16
-70 6 -27 14 -60 16 -72 2 -13 16 -69 29 -125 14 -57 28 -114 31 -128 11 -52
77 -279 106 -365 32 -95 162 -432 203 -526 14 -31 25 -60 25 -64 0 -33 304
-672 413 -870 210 -378 518 -853 724 -1115 320 -407 469 -576 793 -900 178
-178 261 -258 381 -365 361 -322 882 -705 1319 -968 774 -464 1624 -811 2500
-1019 133 -31 158 -37 285 -62 44 -9 91 -18 105 -21 41 -9 371 -63 425 -70 55
-7 106 -14 145 -20 14 -2 61 -7 105 -10 44 -4 82 -8 85 -10 3 -2 47 -6 98 -10
52 -4 106 -8 120 -10 222 -26 1126 -26 1372 0 19 2 109 11 200 20 155 15 232
24 375 45 33 5 80 12 105 15 64 9 397 71 507 94 1081 233 2104 667 3018 1278
209 140 239 161 370 258 77 57 305 234 315 245 3 3 25 21 50 41 25 20 55 46
68 57 13 11 40 34 62 52 21 17 51 43 67 58 16 15 69 63 119 106 130 116 542
531 665 671 539 613 959 1234 1309 1934 99 198 231 490 268 591 11 30 46 120
77 200 86 221 204 582 265 810 17 63 37 138 45 165 7 28 31 133 54 235 22 102
45 205 50 230 6 25 15 74 21 110 6 36 13 76 16 90 3 14 7 38 9 53 2 15 7 45
10 65 3 21 7 47 9 58 2 12 7 45 11 74 4 29 8 61 10 71 2 10 6 45 10 78 3 33 7
68 9 78 2 10 7 52 11 93 4 41 9 87 10 101 2 14 6 66 10 115 3 49 8 109 10 134
18 184 24 691 10 910 -12 208 -13 218 -30 370 -3 19 -7 58 -10 85 -3 28 -8 57
-10 65 -2 8 -7 35 -10 60 -3 25 -7 59 -9 75 -5 36 -53 309 -61 345 -3 14 -10
50 -16 80 -17 89 -19 100 -39 186 -11 45 -22 95 -25 111 -3 15 -26 107 -50
203 -25 96 -48 184 -50 195 -5 21 -114 400 -145 500 -54 178 -194 596 -293
875 -59 165 -167 457 -187 505 -5 11 -65 163 -134 338 -121 305 -247 616 -287
704 -10 23 -19 45 -19 48 0 3 -9 25 -19 48 -10 23 -44 103 -76 177 -31 74 -64
153 -74 175 -10 22 -38 85 -61 140 -44 102 -177 407 -210 480 -22 48 -36 81
-135 305 -42 96 -88 200 -102 230 -14 30 -54 120 -90 199 -94 211 -627 1384
-690 1521 -19 41 -72 158 -118 260 -46 102 -99 219 -118 260 -19 41 -74 163
-122 270 -48 107 -98 220 -112 250 -14 30 -78 175 -143 321 -65 146 -127 285
-138 310 -30 65 -243 551 -252 574 -4 11 -18 43 -30 70 -12 28 -29 65 -36 83
-20 47 -38 88 -72 167 -405 929 -946 2303 -1229 3120 -82 238 -291 868 -338
1020 -97 314 -124 402 -144 470 -11 39 -29 102 -41 140 -12 39 -23 77 -25 85
-2 8 -13 49 -25 90 -42 147 -161 593 -175 653 -2 10 -7 27 -10 37 -3 10 -7 27
-9 37 -2 10 -18 74 -35 143 -33 136 -108 463 -114 495 -4 20 -26 125 -52 245
-8 36 -17 76 -19 90 -2 14 -11 59 -19 100 -35 172 -73 377 -82 435 -8 59 -18
122 -22 140 -2 11 -11 61 -19 110 -19 117 -21 131 -29 190 -3 28 -8 57 -10 65
-2 8 -7 40 -10 70 -3 30 -10 79 -15 109 -6 30 -8 56 -6 58 2 3 1 17 -4 32 -4
15 -11 57 -14 92 -4 35 -9 78 -11 94 -2 17 -7 59 -10 95 -3 36 -8 76 -10 90
-3 23 -11 103 -20 205 -2 22 -6 65 -9 95 -14 137 -31 403 -43 675 -9 210 -10
880 -1 1113 3 94 6 172 5 171 -1 -1 -33 -11 -72 -23z"/>
<path d="M7421 14924 c0 -11 3 -14 6 -6 3 7 2 16 -1 19 -3 4 -6 -2 -5 -13z"/>
</g>
</svg>
