<?xml version="1.0" standalone="no"?>
<!DOCTYPE svg PUBLIC "-//W3C//DTD SVG 20010904//EN"
 "http://www.w3.org/TR/2001/REC-SVG-20010904/DTD/svg10.dtd">
<svg version="1.0" xmlns="http://www.w3.org/2000/svg"
 width="700.000000pt" height="700.000000pt" viewBox="0 0 700.000000 700.000000"
 preserveAspectRatio="xMidYMid meet">
<metadata>
Created by potrace 1.11, written by Peter Selinger 2001-2013
</metadata>
<g transform="translate(0.000000,700.000000) scale(0.100000,-0.100000)"
fill="#000000" stroke="none">
<path d="M3428 6415 c-2 -2 -25 -6 -53 -9 -295 -39 -549 -261 -635 -556 -28
-95 -50 -130 -102 -165 -31 -20 -58 -29 -102 -32 -55 -4 -67 -1 -128 31 -85
45 -173 81 -224 91 -21 5 -46 10 -54 12 -8 2 -52 5 -96 8 -215 11 -424 -69
-585 -225 -156 -152 -237 -332 -244 -541 -4 -148 27 -276 104 -422 46 -87 53
-146 25 -212 -27 -65 -75 -101 -182 -135 -226 -73 -371 -191 -480 -393 -85
-155 -111 -393 -63 -572 16 -59 65 -171 96 -221 104 -163 247 -270 448 -334
112 -36 164 -78 185 -148 22 -72 15 -110 -38 -217 -72 -146 -94 -234 -93 -375
0 -230 76 -406 243 -570 158 -155 356 -232 581 -225 111 4 219 34 344 96 85
43 107 50 152 48 110 -5 168 -58 212 -195 36 -110 69 -179 122 -250 143 -193
369 -311 611 -318 326 -10 619 169 747 457 15 34 38 95 51 135 36 116 107 172
217 172 28 0 69 -15 137 -49 141 -71 234 -94 376 -94 132 0 216 17 329 69 119
55 260 171 320 264 8 14 18 27 21 30 12 11 60 109 80 163 41 110 59 308 35
405 -3 12 -7 32 -10 44 -12 53 -42 130 -82 207 -48 92 -55 149 -28 214 28 67
74 102 182 137 272 87 447 258 533 520 46 142 46 336 -1 483 -82 256 -274 441
-542 522 -71 21 -95 33 -126 65 -20 21 -43 56 -49 78 -22 72 -15 111 38 218
83 170 112 330 89 490 -49 330 -321 611 -646 668 -75 13 -226 13 -288 1 -62
-13 -174 -55 -249 -94 -83 -44 -127 -51 -198 -29 -71 21 -118 81 -148 188 -71
258 -301 482 -557 541 -26 6 -57 13 -68 15 -22 6 -203 13 -207 9z m169 -604
c48 -22 98 -85 107 -136 4 -19 20 -67 36 -106 122 -301 401 -496 715 -501 159
-3 295 30 406 98 60 37 131 54 180 43 98 -22 171 -112 171 -208 0 -36 -11 -69
-45 -136 -76 -150 -100 -247 -100 -395 1 -250 126 -492 328 -635 78 -56 141
-86 245 -120 102 -33 146 -64 171 -119 39 -87 15 -208 -52 -259 -19 -14 -72
-37 -119 -51 -344 -105 -569 -403 -572 -756 -2 -153 20 -238 104 -404 59 -117
53 -197 -21 -272 -79 -81 -157 -86 -286 -22 -166 83 -246 103 -405 100 -210
-3 -414 -92 -555 -243 -93 -99 -146 -191 -191 -330 -14 -46 -38 -99 -52 -118
-52 -69 -170 -93 -256 -51 -62 30 -87 66 -126 185 -40 120 -94 215 -174 301
-238 262 -622 333 -936 174 -30 -15 -70 -35 -87 -45 -127 -65 -294 45 -295
195 0 34 11 68 45 135 100 200 122 347 82 564 -3 18 -19 69 -36 111 -90 235
-288 411 -544 485 -33 9 -75 29 -94 42 -96 73 -95 253 2 327 19 15 65 35 102
46 459 131 701 606 537 1050 -9 25 -34 78 -55 118 -60 114 -51 196 30 276 43
42 118 68 166 59 18 -3 70 -25 117 -48 152 -75 242 -99 380 -98 259 0 474 109
647 326 41 51 91 162 133 292 30 94 100 145 200 145 33 0 72 -8 97 -19z"/>
<path d="M3355 4658 c-87 -10 -212 -43 -284 -75 -29 -12 -57 -23 -62 -23 -5 0
-47 -23 -94 -50 -145 -86 -266 -197 -368 -337 -67 -92 -148 -264 -173 -368 -1
-5 -8 -32 -14 -60 -36 -151 -31 -379 12 -540 183 -682 917 -1050 1566 -784
262 107 470 298 603 554 123 236 158 551 89 815 -146 566 -691 937 -1275 868z
m337 -609 c259 -87 421 -354 385 -634 -11 -78 -61 -203 -105 -257 -110 -136
-240 -215 -387 -234 -261 -34 -499 94 -609 327 -127 267 -37 583 210 739 151
95 335 117 506 59z"/>
</g>
</svg>
